<?xml version="1.0" standalone="no"?><!DOCTYPE svg PUBLIC "-//W3C//DTD SVG 1.1//EN" "http://www.w3.org/Graphics/SVG/1.1/DTD/svg11.dtd"><svg t="1677815292898" class="icon" viewBox="0 0 1024 1024" version="1.1" xmlns="http://www.w3.org/2000/svg" p-id="1453" xmlns:xlink="http://www.w3.org/1999/xlink" width="200" height="200"><path d="M482.742857 871.862857c-210.651429 0-383.268571-172.617143-383.268571-383.268571 0-210.651429 172.617143-383.268571 383.268571-383.268572 210.651429 0 383.268571 172.617143 383.268572 383.268572 0 210.651429-172.617143 383.268571-383.268572 383.268571z m0-716.8C298.422857 155.062857 146.285714 304.274286 146.285714 488.594286c0 184.32 149.211429 336.457143 336.457143 336.457143 184.32 0 336.457143-149.211429 336.457143-336.457143 0-184.32-149.211429-333.531429-336.457143-333.531429z" fill="#3271B0" p-id="1454"></path><path d="M801.645714 871.862857H482.742857c-11.702857 0-23.405714-11.702857-23.405714-23.405714s11.702857-23.405714 23.405714-23.405714h318.902857c11.702857 0 23.405714 11.702857 23.405715 23.405714-2.925714 11.702857-11.702857 23.405714-23.405715 23.405714z" fill="#3271B0" p-id="1455"></path><path d="M485.668571 418.377143c-49.737143 0-93.622857-40.96-93.622857-93.622857 0-52.662857 40.96-93.622857 93.622857-93.622857 49.737143 0 93.622857 40.96 93.622858 93.622857 0 52.662857-43.885714 93.622857-93.622858 93.622857z m0-125.805714c-17.554286 0-32.182857 14.628571-32.182857 32.182857 0 17.554286 14.628571 32.182857 32.182857 32.182857 17.554286 0 32.182857-14.628571 32.182858-32.182857 0-17.554286-14.628571-32.182857-32.182858-32.182857z" fill="#3271B0" p-id="1456"></path><path d="M646.582857 576.365714c-46.811429 0-84.845714-38.034286-84.845714-84.845714 0-46.811429 38.034286-84.845714 84.845714-84.845714 46.811429 0 84.845714 38.034286 84.845714 84.845714 0 46.811429-38.034286 84.845714-84.845714 84.845714z m0-122.88c-20.48 0-40.96 17.554286-40.96 40.96 0 20.48 17.554286 40.96 40.96 40.96 20.48 0 40.96-17.554286 40.96-40.96-2.925714-23.405714-17.554286-40.96-40.96-40.96z" fill="#CE1C1B" p-id="1457"></path><path d="M485.668571 746.057143c-49.737143 0-93.622857-40.96-93.622857-93.622857 0-52.662857 40.96-93.622857 93.622857-93.622857 49.737143 0 93.622857 40.96 93.622858 93.622857 0 52.662857-43.885714 93.622857-93.622858 93.622857z m0-125.805714c-17.554286 0-32.182857 14.628571-32.182857 32.182857 0 17.554286 14.628571 32.182857 32.182857 32.182857 17.554286 0 32.182857-14.628571 32.182858-32.182857 0-17.554286-14.628571-32.182857-32.182858-32.182857z" fill="#3271B0" p-id="1458"></path><path d="M321.828571 576.365714c-46.811429 0-84.845714-38.034286-84.845714-84.845714 0-46.811429 38.034286-84.845714 84.845714-84.845714s84.845714 38.034286 84.845715 84.845714c-2.925714 46.811429-40.96 84.845714-84.845715 84.845714z m0-122.88c-20.48 0-40.96 17.554286-40.96 40.96 0 20.48 17.554286 40.96 40.96 40.96 20.48 0 40.96-17.554286 40.96-40.96-2.925714-23.405714-20.48-40.96-40.96-40.96z" fill="#CE1C1B" p-id="1459"></path></svg>