<?xml version="1.0" standalone="no"?><!DOCTYPE svg PUBLIC "-//W3C//DTD SVG 1.1//EN" "http://www.w3.org/Graphics/SVG/1.1/DTD/svg11.dtd"><svg t="1677831178739" class="icon" viewBox="0 0 1024 1024" version="1.1" xmlns="http://www.w3.org/2000/svg" p-id="3817" xmlns:xlink="http://www.w3.org/1999/xlink" width="200" height="200"><path d="M517.851429 939.154286c-146.285714 0-277.942857-87.771429-336.457143-225.28-67.291429-8.777143-119.954286-67.291429-119.954286-134.582857 0-70.217143 49.737143-122.88 114.102857-134.582858 52.662857-140.434286 187.245714-236.982857 339.382857-236.982857 152.137143 0 286.72 93.622857 339.382857 234.057143 67.291429 8.777143 119.954286 67.291429 119.954286 134.582857 0 70.217143-55.588571 131.657143-122.88 134.582857-55.588571 137.508571-187.245714 228.205714-333.531428 228.205715z m0-681.691429c-137.508571 0-260.388571 87.771429-301.348572 216.502857l-5.851428 14.628572h-14.628572c-49.737143 2.925714-87.771429 40.96-87.771428 90.697143 0 49.737143 40.96 90.697143 90.697142 90.697142h14.628572l5.851428 14.628572c46.811429 122.88 166.765714 207.725714 298.422858 207.725714 131.657143 0 251.611429-81.92 298.422857-207.725714l5.851428-17.554286 17.554286 2.925714c49.737143 0 90.697143-40.96 90.697143-90.697142 0-49.737143-40.96-90.697143-90.697143-90.697143h-17.554286l-2.925714-14.628572c-40.96-131.657143-163.84-216.502857-301.348571-216.502857z" fill="#3271B0" p-id="3818"></path><path d="M517.851429 257.462857c-11.702857 0-20.48-11.702857-20.48-23.405714s11.702857-23.405714 23.405714-23.405714c70.217143 0 137.508571-38.034286 172.617143-99.474286 5.851429-11.702857 20.48-14.628571 29.257143-8.777143 11.702857 5.851429 14.628571 20.48 8.777142 29.257143-43.885714 76.068571-125.805714 125.805714-213.577142 125.805714zM441.782857 509.074286c0 20.48-17.554286 38.034286-38.034286 38.034285-20.48 0-38.034286-17.554286-38.034285-38.034285s17.554286-38.034286 38.034285-38.034286c20.48-2.925714 38.034286 17.554286 38.034286 38.034286zM672.914286 509.074286c0 20.48-17.554286 38.034286-38.034286 38.034285-20.48 0-38.034286-17.554286-38.034286-38.034285s17.554286-38.034286 38.034286-38.034286c20.48 0 38.034286 17.554286 38.034286 38.034286zM526.628571 757.76c-64.365714 0-122.88-38.034286-149.211428-96.548571-5.851429-11.702857 0-23.405714 11.702857-29.257143 11.702857-5.851429 23.405714 0 29.257143 11.702857 20.48 43.885714 61.44 70.217143 108.251428 70.217143s84.845714-26.331429 105.325715-67.291429c5.851429-11.702857 20.48-14.628571 29.257143-11.702857 11.702857 5.851429 14.628571 20.48 11.702857 29.257143-29.257143 58.514286-84.845714 93.622857-146.285715 93.622857z" fill="#3271B0" p-id="3819"></path></svg>