<?xml version="1.0" standalone="no"?><!DOCTYPE svg PUBLIC "-//W3C//DTD SVG 1.1//EN" "http://www.w3.org/Graphics/SVG/1.1/DTD/svg11.dtd"><svg t="1677831120397" class="icon" viewBox="0 0 1024 1024" version="1.1" xmlns="http://www.w3.org/2000/svg" p-id="3662" xmlns:xlink="http://www.w3.org/1999/xlink" width="200" height="200"><path d="M541.257143 801.645714c-166.765714 0-298.422857-134.582857-298.422857-298.422857C242.834286 336.457143 377.417143 204.8 541.257143 204.8c166.765714 0 298.422857 134.582857 298.422857 298.422857 0 166.765714-131.657143 298.422857-298.422857 298.422857z m0-550.034285c-140.434286 0-251.611429 114.102857-251.611429 251.611428 0 140.434286 114.102857 251.611429 251.611429 251.611429s251.611429-114.102857 251.611428-251.611429c2.925714-140.434286-111.177143-251.611429-251.611428-251.611428z" fill="#3271B0" p-id="3663"></path><path d="M196.022857 731.428571c-46.811429 0-87.771429-11.702857-102.4-43.885714-35.108571-70.217143 87.771429-166.765714 163.84-216.502857l26.331429 38.034286c-122.88 81.92-155.062857 143.36-146.285715 160.914285 8.777143 17.554286 64.365714 29.257143 187.245715-2.925714 73.142857-17.554286 157.988571-49.737143 239.908571-87.771428 90.697143-43.885714 172.617143-90.697143 236.982857-137.508572 90.697143-70.217143 114.102857-117.028571 108.251429-131.657143-8.777143-17.554286-67.291429-29.257143-198.948572 5.851429l-11.702857-43.885714c99.474286-26.331429 225.28-43.885714 251.611429 20.48 26.331429 58.514286-52.662857 134.582857-122.88 187.245714-67.291429 49.737143-149.211429 99.474286-242.834286 143.36-84.845714 40.96-172.617143 73.142857-248.685714 90.697143-46.811429 8.777143-96.548571 17.554286-140.434286 17.554285z" fill="#3271B0" p-id="3664"></path></svg>