<?xml version="1.0" standalone="no"?><!DOCTYPE svg PUBLIC "-//W3C//DTD SVG 1.1//EN" "http://www.w3.org/Graphics/SVG/1.1/DTD/svg11.dtd"><svg t="1677815505685" class="icon" viewBox="0 0 1024 1024" version="1.1" xmlns="http://www.w3.org/2000/svg" p-id="2563" xmlns:xlink="http://www.w3.org/1999/xlink" width="200" height="200"><path d="M512 857.234286h-29.257143c-119.954286 0-213.577143-35.108571-269.165714-99.474286-49.737143-58.514286-70.217143-140.434286-55.588572-239.908571 23.405714-213.577143 149.211429-342.308571 336.457143-336.457143h8.777143c184.32 0 307.2 128.731429 330.605714 339.382857 14.628571 99.474286-5.851429 178.468571-55.588571 236.982857-49.737143 67.291429-143.36 99.474286-266.24 99.474286z m-11.702857-46.811429h14.628571c108.251429 0 187.245714-26.331429 234.057143-81.92 40.96-46.811429 55.588571-117.028571 43.885714-201.874286-20.48-193.097143-125.805714-301.348571-292.571428-298.422857h-8.777143c-160.914286 0-263.314286 108.251429-283.794286 298.422857-11.702857 87.771429 2.925714 155.062857 43.885715 204.8 46.811429 52.662857 134.582857 81.92 248.685714 78.994286z" fill="#3271B0" p-id="2564"></path><path d="M193.097143 418.377143c-5.851429 0-11.702857-2.925714-14.628572-5.851429-23.405714-17.554286-35.108571-46.811429-38.034285-78.994285 0-29.257143 11.702857-61.44 32.182857-84.845715 23.405714-26.331429 55.588571-46.811429 87.771428-49.737143 26.331429-2.925714 52.662857 5.851429 73.142858 20.48 8.777143 8.777143 11.702857 23.405714 2.925714 32.182858-5.851429 11.702857-20.48 11.702857-32.182857 5.851428-14.628571-11.702857-29.257143-11.702857-40.96-11.702857-20.48 0-40.96 14.628571-55.588572 32.182857-14.628571 17.554286-20.48 38.034286-20.48 55.588572 0 17.554286 8.777143 35.108571 20.48 43.885714 8.777143 8.777143 11.702857 23.405714 2.925715 32.182857-5.851429 5.851429-11.702857 8.777143-17.554286 8.777143z" fill="#3271B0" p-id="2565"></path><path d="M813.348571 418.377143c-5.851429 0-14.628571-2.925714-17.554285-8.777143-8.777143-8.777143-5.851429-23.405714 2.925714-32.182857 11.702857-11.702857 17.554286-26.331429 20.48-43.885714 0-20.48-8.777143-40.96-20.48-55.588572-14.628571-17.554286-38.034286-29.257143-55.588571-32.182857-11.702857-2.925714-26.331429 0-40.96 11.702857-8.777143 5.851429-26.331429 5.851429-32.182858-5.851428-8.777143-8.777143-5.851429-23.405714 2.925715-32.182858 20.48-17.554286 46.811429-23.405714 73.142857-20.48 35.108571 2.925714 67.291429 20.48 87.771428 49.737143 20.48 23.405714 32.182857 55.588571 32.182858 84.845715 0 32.182857-14.628571 58.514286-38.034286 78.994285-2.925714 2.925714-8.777143 5.851429-14.628572 5.851429z" fill="#3271B0" p-id="2566"></path><path d="M444.708571 544.182857c0 17.554286 23.405714 35.108571 55.588572 35.108572 29.257143 0 55.588571-14.628571 55.588571-35.108572 0-17.554286-23.405714-35.108571-55.588571-35.108571-32.182857 0-55.588571 14.628571-55.588572 35.108571z" fill="#D71D19" p-id="2567"></path></svg>