<?xml version="1.0" standalone="no"?><!DOCTYPE svg PUBLIC "-//W3C//DTD SVG 1.1//EN" "http://www.w3.org/Graphics/SVG/1.1/DTD/svg11.dtd"><svg t="1677831202900" class="icon" viewBox="0 0 1024 1024" version="1.1" xmlns="http://www.w3.org/2000/svg" p-id="4136" xmlns:xlink="http://www.w3.org/1999/xlink" width="200" height="200"><path d="M787.017143 845.531429H304.274286c-17.554286 0-35.108571-14.628571-35.108572-32.182858V327.68c0-55.588571 43.885714-99.474286 99.474286-99.474286h418.377143c55.588571 0 99.474286 43.885714 99.474286 99.474286v418.377143c0 55.588571-43.885714 99.474286-99.474286 99.474286z m-471.04-46.811429h471.04c29.257143 0 52.662857-23.405714 52.662857-52.662857V327.68c0-29.257143-23.405714-52.662857-52.662857-52.662857H368.64c-29.257143 0-52.662857 23.405714-52.662857 52.662857v471.04z" fill="#3271B0" p-id="4137"></path><path d="M743.131429 713.874286H412.525714c-11.702857 0-23.405714-11.702857-23.405714-23.405715s11.702857-23.405714 23.405714-23.405714h330.605715c11.702857 0 23.405714 11.702857 23.405714 23.405714s-11.702857 23.405714-23.405714 23.405715zM743.131429 558.811429H412.525714c-11.702857 0-23.405714-11.702857-23.405714-23.405715s11.702857-23.405714 23.405714-23.405714h330.605715c11.702857 0 23.405714 11.702857 23.405714 23.405714 0 14.628571-11.702857 23.405714-23.405714 23.405715zM743.131429 406.674286h-204.8c-11.702857 0-23.405714-11.702857-23.405715-23.405715s11.702857-23.405714 23.405715-23.405714h204.8c11.702857 0 23.405714 11.702857 23.405714 23.405714s-11.702857 23.405714-23.405714 23.405715z" fill="#3271B0" p-id="4138"></path><path d="M473.965714 406.674286h-58.514285c-11.702857 0-23.405714-11.702857-23.405715-23.405715s11.702857-23.405714 23.405715-23.405714h58.514285c11.702857 0 23.405714 11.702857 23.405715 23.405714s-11.702857 23.405714-23.405715 23.405715z" fill="#CE1C1B" p-id="4139"></path><path d="M333.531429 845.531429H257.462857c-52.662857 0-99.474286-43.885714-99.474286-99.474286V371.565714c0-11.702857 11.702857-23.405714 23.405715-23.405714s23.405714 11.702857 23.405714 23.405714v371.565715c0 29.257143 23.405714 52.662857 52.662857 52.662857h76.068572c11.702857 0 23.405714 11.702857 23.405714 23.405714 0 14.628571-11.702857 26.331429-23.405714 26.331429z" fill="#3271B0" p-id="4140"></path></svg>