<?xml version="1.0" standalone="no"?><!DOCTYPE svg PUBLIC "-//W3C//DTD SVG 1.1//EN" "http://www.w3.org/Graphics/SVG/1.1/DTD/svg11.dtd"><svg t="1677831033327" class="icon" viewBox="0 0 1024 1024" version="1.1" xmlns="http://www.w3.org/2000/svg" p-id="2720" xmlns:xlink="http://www.w3.org/1999/xlink" width="200" height="200"><path d="M593.92 275.017143c-5.851429 0-11.702857-2.925714-14.628571-5.851429l-128.731429-111.177143c-8.777143-8.777143-11.702857-23.405714-2.925714-32.182857 8.777143-8.777143 23.405714-11.702857 32.182857-2.925714L611.474286 234.057143c8.777143 8.777143 11.702857 23.405714 2.925714 32.182857-5.851429 5.851429-11.702857 8.777143-20.48 8.777143z" fill="#2D78B6" p-id="2721"></path><path d="M473.965714 377.417143c-5.851429 0-14.628571-2.925714-17.554285-8.777143-8.777143-8.777143-8.777143-23.405714 2.925714-32.182857l122.88-105.325714c8.777143-5.851429 23.405714-5.851429 32.182857 2.925714 8.777143 8.777143 8.777143 23.405714-2.925714 32.182857l-122.88 105.325714c-5.851429 2.925714-8.777143 5.851429-14.628572 5.851429zM333.531429 517.851429c-5.851429 0-11.702857-2.925714-14.628572-5.851429l-128.731428-111.177143c-8.777143-8.777143-11.702857-23.405714-2.925715-32.182857 8.777143-8.777143 23.405714-11.702857 32.182857-2.925714l128.731429 111.177143c8.777143 8.777143 11.702857 23.405714 2.925714 32.182857-2.925714 5.851429-11.702857 8.777143-17.554285 8.777143z" fill="#2D78B6" p-id="2722"></path><path d="M210.651429 623.177143c-5.851429 0-14.628571-2.925714-17.554286-8.777143-8.777143-8.777143-8.777143-23.405714 2.925714-32.182857l122.88-105.325714c8.777143-8.777143 23.405714-8.777143 32.182857 2.925714 8.777143 8.777143 8.777143 23.405714-2.925714 32.182857l-122.88 105.325714c-2.925714 2.925714-8.777143 5.851429-14.628571 5.851429z" fill="#2D78B6" p-id="2723"></path><path d="M579.291429 734.354286c-5.851429 0-11.702857-2.925714-14.628572-5.851429l-128.731428-111.177143c-8.777143-8.777143-11.702857-23.405714-2.925715-32.182857 8.777143-8.777143 23.405714-11.702857 32.182857-2.925714l128.731429 111.177143c8.777143 8.777143 11.702857 23.405714 2.925714 32.182857-2.925714 5.851429-11.702857 8.777143-17.554285 8.777143z" fill="#2D78B6" p-id="2724"></path><path d="M456.411429 836.754286c-5.851429 0-14.628571-2.925714-17.554286-8.777143-8.777143-8.777143-8.777143-23.405714 2.925714-32.182857l122.88-105.325715c8.777143-8.777143 23.405714-8.777143 32.182857 2.925715 8.777143 8.777143 8.777143 23.405714-2.925714 32.182857l-122.88 105.325714c-2.925714 2.925714-8.777143 5.851429-14.628571 5.851429z" fill="#2D78B6" p-id="2725"></path><path d="M810.422857 503.222857c-5.851429 0-11.702857-2.925714-14.628571-5.851428l-128.731429-111.177143c-8.777143-8.777143-11.702857-23.405714-2.925714-32.182857 8.777143-8.777143 23.405714-11.702857 32.182857-2.925715l128.731429 111.177143c8.777143 8.777143 11.702857 23.405714 2.925714 32.182857-2.925714 5.851429-11.702857 8.777143-17.554286 8.777143z" fill="#D8201E" p-id="2726"></path><path d="M687.542857 605.622857c-5.851429 0-14.628571-2.925714-17.554286-8.777143-8.777143-8.777143-8.777143-23.405714 2.925715-32.182857l122.88-105.325714c8.777143-8.777143 23.405714-8.777143 32.182857 2.925714 8.777143 8.777143 8.777143 23.405714-2.925714 32.182857L702.171429 602.697143c-2.925714 2.925714-8.777143 2.925714-14.628572 2.925714z" fill="#D8201E" p-id="2727"></path></svg>