<?xml version="1.0" standalone="no"?><!DOCTYPE svg PUBLIC "-//W3C//DTD SVG 1.1//EN" "http://www.w3.org/Graphics/SVG/1.1/DTD/svg11.dtd"><svg t="1677815225517" class="icon" viewBox="0 0 1024 1024" version="1.1" xmlns="http://www.w3.org/2000/svg" p-id="1138" xmlns:xlink="http://www.w3.org/1999/xlink" width="200" height="200"><path d="M772.388571 772.388571h-526.628571c-26.331429 0-52.662857-11.702857-70.217143-29.257142-17.554286-17.554286-26.331429-43.885714-26.331428-70.217143l8.777142-213.577143c2.925714-52.662857 49.737143-99.474286 102.4-99.474286h494.445715c55.588571 0 102.4 43.885714 102.4 99.474286l8.777143 213.577143c2.925714 26.331429-8.777143 52.662857-26.331429 70.217143-14.628571 20.48-40.96 29.257143-67.291429 29.257142zM263.314286 403.748571c-29.257143 0-55.588571 23.405714-55.588572 55.588572L196.022857 672.914286c0 14.628571 5.851429 26.331429 14.628572 38.034285 8.777143 8.777143 23.405714 14.628571 38.034285 14.628572h526.628572c14.628571 0 26.331429-5.851429 38.034285-14.628572 8.777143-8.777143 14.628571-23.405714 14.628572-38.034285l-8.777143-213.577143c-2.925714-29.257143-26.331429-55.588571-55.588571-55.588572H263.314286z" fill="#317DB9" p-id="1139"></path><path d="M816.274286 421.302857c-8.777143 0-17.554286-5.851429-20.48-17.554286l-2.925715-8.777142c-2.925714-8.777143-14.628571-55.588571-20.48-84.845715l-5.851428-29.257143c-5.851429-29.257143-40.96-55.588571-70.217143-55.588571H339.382857c-32.182857 0-67.291429 26.331429-73.142857 55.588571l-8.777143 29.257143c-14.628571 49.737143-20.48 76.068571-20.48 78.994286l-2.925714 2.925714c-5.851429 11.702857-17.554286 17.554286-29.257143 14.628572-11.702857-5.851429-17.554286-17.554286-14.628571-29.257143l2.925714-2.925714c0-2.925714 8.777143-32.182857 20.48-76.068572l8.777143-29.257143c14.628571-49.737143 67.291429-90.697143 117.028571-90.697143h354.011429c52.662857 0 105.325714 40.96 117.028571 93.622858l5.851429 29.257142c11.702857 46.811429 17.554286 78.994286 17.554285 81.92l2.925715 8.777143c2.925714 11.702857-2.925714 23.405714-14.628572 29.257143h-5.851428z" fill="#317DB9" p-id="1140"></path><path d="M134.582857 435.931429c-8.777143 0-17.554286-5.851429-20.48-11.702858-5.851429-11.702857 0-23.405714 11.702857-29.257142l70.217143-35.108572c11.702857-5.851429 23.405714 0 29.257143 11.702857 5.851429 11.702857 0 23.405714-11.702857 29.257143l-70.217143 35.108572h-8.777143zM892.342857 435.931429c-2.925714 0-5.851429 0-8.777143-2.925715l-70.217143-35.108571c-11.702857-5.851429-17.554286-20.48-11.702857-29.257143 5.851429-11.702857 20.48-17.554286 29.257143-11.702857l70.217143 35.108571c11.702857 5.851429 17.554286 20.48 11.702857 29.257143-5.851429 8.777143-11.702857 14.628571-20.48 14.628572z" fill="#CD1B1D" p-id="1141"></path><path d="M754.834286 827.977143c-11.702857 0-23.405714-11.702857-23.405715-23.405714v-55.588572c0-11.702857 11.702857-23.405714 23.405715-23.405714s23.405714 11.702857 23.405714 23.405714v55.588572c0 14.628571-8.777143 23.405714-23.405714 23.405714zM266.24 827.977143c-11.702857 0-23.405714-11.702857-23.405714-23.405714v-55.588572c0-11.702857 11.702857-23.405714 23.405714-23.405714s23.405714 11.702857 23.405714 23.405714v55.588572c0 14.628571-11.702857 23.405714-23.405714 23.405714z" fill="#317DB9" p-id="1142"></path><path d="M336.457143 573.44c17.554286 0 35.108571 14.628571 35.108571 35.108571 0 17.554286-14.628571 35.108571-35.108571 35.108572-17.554286 0-35.108571-14.628571-35.108572-35.108572s14.628571-35.108571 35.108572-35.108571zM687.542857 573.44c17.554286 0 35.108571 14.628571 35.108572 35.108571 0 17.554286-14.628571 35.108571-35.108572 35.108572s-35.108571-14.628571-35.108571-35.108572c2.925714-20.48 17.554286-35.108571 35.108571-35.108571z" fill="#317DB9" p-id="1143"></path></svg>