<?xml version="1.0" standalone="no"?><!DOCTYPE svg PUBLIC "-//W3C//DTD SVG 1.1//EN" "http://www.w3.org/Graphics/SVG/1.1/DTD/svg11.dtd"><svg t="1677312560546" class="icon" viewBox="0 0 1024 1024" version="1.1" xmlns="http://www.w3.org/2000/svg" p-id="34223" xmlns:xlink="http://www.w3.org/1999/xlink" width="128" height="128"><path d="M509.294704 960.345979a413.751133 413.751133 0 1 1 413.751133-413.751133 413.751133 413.751133 0 0 1-413.751133 413.751133z m0-763.848246a350.097113 350.097113 0 1 0 350.097113 350.097113 350.097113 350.097113 0 0 0-350.097113-350.097113z" fill="#54C3F1" p-id="34224"></path><path d="M477.467694 37.362682h63.65402v127.308041h-63.65402z" fill="#54C3F1" p-id="34225"></path><path d="M381.986663 5.535672h254.616082v63.65402h-254.616082zM222.851612 1024H159.197591v-37.874142l65.881912-164.863913 59.198239 23.551987L222.851612 998.220122v25.779878zM859.391817 1024h-63.654021v-25.779878l-61.426129-153.40619 59.198239-23.551987L859.391817 986.125858v37.874142zM763.910786 578.421856h-286.443092v-286.443092h63.65402v222.789072h222.789072v63.65402zM900.44866 318.395183l-225.016962-226.608313 44.876084-45.194355a159.135051 159.135051 0 0 1 225.016963 0 159.135051 159.135051 0 0 1 0 225.016963z m-134.946523-226.608313l134.946523 134.946523a95.481031 95.481031 0 1 0-134.946523-134.946523z" fill="#54C3F1" p-id="34226"></path><path d="M709.550253 237.650058l63.685847-63.654021 45.03522 45.003393-63.717675 63.65402zM123.55134 318.395183L78.356985 271.609478a159.135051 159.135051 0 0 1 0-225.016963 159.135051 159.135051 0 0 1 225.016963 0L350.159653 91.78687z m0-225.016963a95.481031 95.481031 0 0 0 0 134.946524l134.946523-136.537874a95.481031 95.481031 0 0 0-134.946523 0z" fill="#54C3F1" p-id="34227"></path><path d="M205.633199 218.872122l45.003393-45.003393 63.685847 63.654021L269.319047 282.589796z" fill="#54C3F1" p-id="34228"></path></svg>