<?xml version="1.0" standalone="no"?><!DOCTYPE svg PUBLIC "-//W3C//DTD SVG 1.1//EN" "http://www.w3.org/Graphics/SVG/1.1/DTD/svg11.dtd"><svg t="1677312506757" class="icon" viewBox="0 0 1024 1024" version="1.1" xmlns="http://www.w3.org/2000/svg" p-id="32642" width="128" height="128" xmlns:xlink="http://www.w3.org/1999/xlink"><path d="M914.752 529.056c0.32-5.76 0.448-11.456 0.448-17.056 0-194.08-160.512-352-357.76-352-144.736 0-274.88 86.112-330.24 216.32-128.96 18.048-227.2 121.024-227.2 242.24C0 753.92 120 864 267.52 864h579.52c97.6 0 176.96-78.08 176.96-174.08 0-71.488-43.744-134.24-109.248-160.864zM847.04 800H267.52C155.296 800 64 718.592 64 618.56c0-94.08 82.624-173.344 188.096-180.544 12.704-0.864 23.68-9.184 27.968-21.12C321.28 301.472 432.736 224 557.44 224c161.984 0 293.76 129.184 293.76 288 0 11.2-0.768 22.912-2.336 35.84a32 32 0 0 0 24.416 35.008c51.072 12.032 86.72 56.064 86.72 107.072 0 60.704-50.688 110.08-112.96 110.08z" fill="#1296db" p-id="32643"></path><path d="M616.48 426.304l-153.472 166.528-55.52-60a32 32 0 1 0-46.976 43.456l79.04 85.44c0.32 0.32 0.704 0.384 0.992 0.704 0.32 0.32 0.48 0.768 0.8 1.088 1.888 1.728 4.096 2.656 6.176 3.84 1.216 0.704 2.24 1.664 3.52 2.176 3.84 1.6 7.904 2.464 12 2.464a31.968 31.968 0 0 0 12.064-2.464c1.216-0.512 2.24-1.472 3.424-2.144 2.144-1.184 4.384-2.144 6.24-3.904 0.352-0.32 0.48-0.768 0.8-1.088 0.32-0.32 0.736-0.384 1.024-0.704l176.96-192a32 32 0 1 0-47.072-43.392z" fill="#1296db" p-id="32644"></path></svg>