<?xml version="1.0" standalone="no"?><!DOCTYPE svg PUBLIC "-//W3C//DTD SVG 1.1//EN" "http://www.w3.org/Graphics/SVG/1.1/DTD/svg11.dtd"><svg t="1677831976863" class="icon" viewBox="0 0 1024 1024" version="1.1" xmlns="http://www.w3.org/2000/svg" p-id="8998" xmlns:xlink="http://www.w3.org/1999/xlink" width="200" height="200"><path d="M796.3 180.3h-91.5v-38.6c0-20.9-16.9-37.9-37.9-37.9S629 120.7 629 141.7v38.6H395.8v-38.6c0-20.9-16.9-37.9-37.9-37.9-20.9 0-37.9 16.9-37.9 37.9v38.6h-91.5c-90.5 0-164 73.6-164 164v405c0 90.5 73.6 164 164 164h567.7c90.5 0 164-73.6 164-164v-405c0.2-90.4-73.4-164-163.9-164zM228.6 256h91.5v21.2c0 20.9 16.9 37.9 37.9 37.9 20.9 0 37.9-16.9 37.9-37.9V256h233.4v21.2c0 20.9 16.9 37.9 37.9 37.9s37.9-16.9 37.9-37.9V256h91.5c48.7 0 88.3 39.6 88.3 88.3v11.1H140.3v-11.1c0-48.6 39.6-88.3 88.3-88.3z m567.7 581.7H228.6c-48.7 0-88.3-39.6-88.3-88.3V431.1h744.4v318.3c-0.1 48.7-39.7 88.3-88.4 88.3z" fill="#61D0ED" p-id="8999"></path><path d="M344 477.2h-51.9c-13.9 0-25.2 11.3-25.2 25.2v51.9c0 13.9 11.3 25.2 25.2 25.2H344c13.9 0 25.2-11.3 25.2-25.2v-51.9c0.1-13.9-11.2-25.2-25.2-25.2zM539.1 477.2h-51.9c-13.9 0-25.2 11.3-25.2 25.2v51.9c0 13.9 11.3 25.2 25.2 25.2h51.9c13.9 0 25.2-11.3 25.2-25.2v-51.9c0-13.9-11.3-25.2-25.2-25.2zM734.2 477.2h-51.9c-13.9 0-25.2 11.3-25.2 25.2v51.9c0 13.9 11.3 25.2 25.2 25.2h51.9c13.9 0 25.2-11.3 25.2-25.2v-51.9c0-13.9-11.3-25.2-25.2-25.2zM342.6 650.9h-51.9c-13.9 0-25.2 11.3-25.2 25.2V728c0 13.9 11.3 25.2 25.2 25.2h51.9c13.9 0 25.2-11.3 25.2-25.2v-51.9c0-13.9-11.3-25.2-25.2-25.2zM537.7 650.9h-51.9c-13.9 0-25.2 11.3-25.2 25.2V728c0 13.9 11.3 25.2 25.2 25.2h51.9c13.9 0 25.2-11.3 25.2-25.2v-51.9c0-13.9-11.3-25.2-25.2-25.2zM732.8 650.9h-51.9c-13.9 0-25.2 11.3-25.2 25.2V728c0 13.9 11.3 25.2 25.2 25.2h51.9c13.9 0 25.2-11.3 25.2-25.2v-51.9c0-13.9-11.3-25.2-25.2-25.2z" fill="#61D0ED" p-id="9000"></path></svg>