<?xml version="1.0" standalone="no"?><!DOCTYPE svg PUBLIC "-//W3C//DTD SVG 1.1//EN" "http://www.w3.org/Graphics/SVG/1.1/DTD/svg11.dtd"><svg t="1677815242541" class="icon" viewBox="0 0 1024 1024" version="1.1" xmlns="http://www.w3.org/2000/svg" p-id="1296" xmlns:xlink="http://www.w3.org/1999/xlink" width="200" height="200"><path d="M819.2 500.297143c-11.702857 0-23.405714-11.702857-23.405714-23.405714v-76.068572H207.725714c-11.702857 0-23.405714-11.702857-23.405714-23.405714s11.702857-23.405714 23.405714-23.405714h614.4c11.702857 0 23.405714 11.702857 23.405715 23.405714v99.474286c-2.925714 11.702857-11.702857 23.405714-26.331429 23.405714z" fill="#3B7EB9" p-id="1297"></path><path d="M473.965714 845.531429c-201.874286 0-368.64-166.765714-368.64-368.64v-11.702858c-2.925714-23.405714-2.925714-61.44 23.405715-87.771428 17.554286-17.554286 43.885714-26.331429 78.994285-23.405714 11.702857 0 23.405714 11.702857 20.48 23.405714 0 11.702857-11.702857 23.405714-23.405714 20.48-20.48-2.925714-35.108571 2.925714-43.885714 8.777143-11.702857 11.702857-11.702857 35.108571-8.777143 52.662857v11.702857c0 178.468571 143.36 321.828571 321.828571 321.828571 122.88 0 236.982857-73.142857 292.571429-184.32 20.48-43.885714 29.257143-87.771429 29.257143-137.508571 0-11.702857 11.702857-23.405714 23.405714-23.405714s23.405714 11.702857 23.405714 23.405714c0 55.588571-11.702857 108.251429-35.108571 157.988571-58.514286 131.657143-190.171429 216.502857-333.531429 216.502858z" fill="#3B7EB9" p-id="1298"></path><path d="M827.977143 652.434286h-11.702857c-11.702857 0-26.331429-2.925714-38.034286-5.851429s-20.48-17.554286-14.628571-29.257143c2.925714-11.702857 17.554286-20.48 29.257142-14.628571 8.777143 2.925714 17.554286 5.851429 26.331429 5.851428h8.777143c55.588571 0 102.4-38.034286 102.4-81.92 0-43.885714-46.811429-81.92-102.4-81.92H819.2v-46.811428h11.702857c81.92 0 149.211429 55.588571 149.211429 128.731428-2.925714 70.217143-67.291429 125.805714-152.137143 125.805715z" fill="#3B7EB9" p-id="1299"></path><path d="M462.262857 292.571429c-11.702857 0-23.405714-11.702857-23.405714-23.405715V149.211429c0-11.702857 11.702857-23.405714 23.405714-23.405715s23.405714 11.702857 23.405714 23.405715v119.954285c0 11.702857-11.702857 23.405714-23.405714 23.405715zM304.274286 292.571429c-11.702857 0-23.405714-11.702857-23.405715-23.405715V187.245714c0-11.702857 11.702857-23.405714 23.405715-23.405714s23.405714 11.702857 23.405714 23.405714v81.92c0 11.702857-8.777143 23.405714-23.405714 23.405715zM637.805714 292.571429c-11.702857 0-23.405714-11.702857-23.405714-23.405715V187.245714c0-11.702857 11.702857-23.405714 23.405714-23.405714s23.405714 11.702857 23.405715 23.405714v81.92c0 11.702857-8.777143 23.405714-23.405715 23.405715z" fill="#D71D1F" p-id="1300"></path></svg>