<?xml version="1.0" standalone="no"?><!DOCTYPE svg PUBLIC "-//W3C//DTD SVG 1.1//EN" "http://www.w3.org/Graphics/SVG/1.1/DTD/svg11.dtd"><svg t="1677831191890" class="icon" viewBox="0 0 1024 1024" version="1.1" xmlns="http://www.w3.org/2000/svg" p-id="3980" xmlns:xlink="http://www.w3.org/1999/xlink" width="200" height="200"><path d="M728.502857 848.457143H277.942857c-55.588571 0-99.474286-43.885714-99.474286-99.474286V266.24c0-55.588571 43.885714-99.474286 99.474286-99.474286H731.428571c55.588571 0 99.474286 43.885714 99.474286 99.474286v482.742857c-2.925714 55.588571-46.811429 99.474286-102.4 99.474286zM277.942857 213.577143c-29.257143 0-52.662857 23.405714-52.662857 52.662857v482.742857c0 29.257143 23.405714 52.662857 52.662857 52.662857H731.428571c29.257143 0 52.662857-23.405714 52.662858-52.662857V266.24c0-29.257143-23.405714-52.662857-52.662858-52.662857H277.942857z" fill="#3271B0" p-id="3981"></path><path d="M459.337143 509.074286c-61.44 0-111.177143-49.737143-111.177143-111.177143 0-61.44 49.737143-111.177143 111.177143-111.177143 61.44 0 111.177143 49.737143 111.177143 111.177143 0 61.44-49.737143 111.177143-111.177143 111.177143z m0-178.468572c-38.034286 0-67.291429 29.257143-67.291429 67.291429s29.257143 67.291429 67.291429 67.291428c38.034286 0 67.291429-29.257143 67.291428-67.291428s-29.257143-67.291429-67.291428-67.291429z" fill="#C21B1F" p-id="3982"></path><path d="M225.28 830.902857h-2.925714c-11.702857-2.925714-20.48-14.628571-20.48-26.331428 0-2.925714 5.851429-38.034286 32.182857-84.845715l2.925714-2.925714 11.702857-17.554286c32.182857-43.885714 46.811429-67.291429 96.548572-99.474285 52.662857-38.034286 96.548571-43.885714 131.657143-46.811429 46.811429-5.851429 90.697143-11.702857 172.617142-90.697143 137.508571-137.508571 102.4-234.057143 102.4-234.057143-5.851429-11.702857 2.925714-23.405714 14.628572-29.257143 11.702857-5.851429 23.405714 2.925714 29.257143 14.628572 2.925714 5.851429 43.885714 125.805714-114.102857 283.794286-90.697143 90.697143-149.211429 99.474286-198.948572 105.325714-35.108571 5.851429-67.291429 8.777143-108.251428 38.034286-43.885714 29.257143-52.662857 43.885714-84.845715 87.771428l-11.702857 17.554286c-20.48 38.034286-26.331429 70.217143-26.331428 70.217143-5.851429 5.851429-14.628571 14.628571-26.331429 14.628571z" fill="#C21B1F" p-id="3983"></path></svg>