<?xml version="1.0" standalone="no"?><!DOCTYPE svg PUBLIC "-//W3C//DTD SVG 1.1//EN" "http://www.w3.org/Graphics/SVG/1.1/DTD/svg11.dtd"><svg t="1677831076553" class="icon" viewBox="0 0 1024 1024" version="1.1" xmlns="http://www.w3.org/2000/svg" p-id="3192" xmlns:xlink="http://www.w3.org/1999/xlink" width="200" height="200"><path d="M488.594286 883.565714c-207.725714 0-377.417143-169.691429-377.417143-377.417143 0-207.725714 169.691429-377.417143 377.417143-377.417142 207.725714 0 377.417143 169.691429 377.417143 377.417142 0 207.725714-169.691429 377.417143-377.417143 377.417143z m0-708.022857C307.2 175.542857 155.062857 324.754286 155.062857 506.148571c0 181.394286 149.211429 333.531429 333.531429 333.531429 181.394286 0 333.531429-149.211429 333.531428-333.531429C822.125714 324.754286 669.988571 175.542857 488.594286 175.542857z" fill="#3271B0" p-id="3193"></path><path d="M488.594286 529.554286c-61.44 0-111.177143-46.811429-111.177143-108.251429 0-58.514286 49.737143-108.251429 111.177143-108.251428 49.737143 0 96.548571 32.182857 108.251428 78.994285 2.925714 8.777143 2.925714 17.554286 2.925715 26.331429 0 11.702857-11.702857 23.405714-23.405715 23.405714s-23.405714-11.702857-23.405714-23.405714c0-5.851429 0-11.702857-2.925714-14.628572-8.777143-26.331429-35.108571-46.811429-64.365715-46.811428-38.034286 0-67.291429 26.331429-67.291428 61.44 0 35.108571 29.257143 61.44 67.291428 61.44 11.702857 0 23.405714 11.702857 23.405715 23.405714 2.925714 14.628571-8.777143 26.331429-20.48 26.331429z" fill="#3271B0" p-id="3194"></path><path d="M488.594286 696.32c-61.44 0-111.177143-46.811429-111.177143-108.251429 0-11.702857 11.702857-23.405714 23.405714-23.405714s23.405714 11.702857 23.405714 23.405714c0 35.108571 29.257143 61.44 67.291429 61.44 38.034286 0 67.291429-26.331429 67.291429-61.44 0-35.108571-29.257143-61.44-67.291429-61.44-11.702857 0-23.405714-11.702857-23.405714-23.405714s11.702857-23.405714 23.405714-23.405714c61.44 0 111.177143 46.811429 111.177143 108.251428-2.925714 61.44-52.662857 108.251429-114.102857 108.251429z" fill="#3271B0" p-id="3195"></path><path d="M488.594286 339.382857c-11.702857 0-23.405714-11.702857-23.405715-23.405714V275.017143c0-11.702857 11.702857-23.405714 23.405715-23.405714s23.405714 11.702857 23.405714 23.405714v40.96c0 14.628571-11.702857 23.405714-23.405714 23.405714z" fill="#D8201E" p-id="3196"></path><path d="M488.594286 754.834286c-11.702857 0-23.405714-11.702857-23.405715-23.405715v-40.96c0-11.702857 11.702857-23.405714 23.405715-23.405714s23.405714 11.702857 23.405714 23.405714V731.428571c0 11.702857-11.702857 23.405714-23.405714 23.405715z" fill="#D8201E" p-id="3197"></path></svg>