<?xml version="1.0" standalone="no"?><!DOCTYPE svg PUBLIC "-//W3C//DTD SVG 1.1//EN" "http://www.w3.org/Graphics/SVG/1.1/DTD/svg11.dtd"><svg t="1677815476323" class="icon" viewBox="0 0 1024 1024" version="1.1" xmlns="http://www.w3.org/2000/svg" p-id="2405" xmlns:xlink="http://www.w3.org/1999/xlink" width="200" height="200"><path d="M760.685714 462.262857c-17.554286 0-35.108571-8.777143-49.737143-20.48-29.257143-29.257143-81.92-76.068571-111.177142-105.325714-20.48-20.48-29.257143-43.885714-23.405715-67.291429 5.851429-23.405714 23.405714-40.96 49.737143-49.737143 40.96-11.702857 87.771429-26.331429 105.325714-32.182857l29.257143-5.851428c11.702857-2.925714 23.405714 2.925714 29.257143 14.628571 2.925714 11.702857-2.925714 23.405714-14.628571 29.257143l-32.182857 8.777143c-17.554286 5.851429-64.365714 20.48-105.325715 32.182857-11.702857 2.925714-17.554286 8.777143-20.48 14.628571-2.925714 5.851429 2.925714 14.628571 11.702857 20.48 29.257143 29.257143 81.92 76.068571 111.177143 105.325715 8.777143 8.777143 17.554286 11.702857 23.405715 8.777143 5.851429-2.925714 11.702857-8.777143 14.628571-20.48 8.777143-40.96 20.48-87.771429 23.405714-105.325715l8.777143-32.182857c2.925714-11.702857 14.628571-20.48 26.331429-17.554286 11.702857 2.925714 20.48 14.628571 17.554285 26.331429l-5.851428 35.108571c-5.851429 17.554286-14.628571 67.291429-23.405714 108.251429-5.851429 26.331429-23.405714 46.811429-43.885715 52.662857H760.685714z" fill="#3878B5" p-id="2406"></path><path d="M830.902857 286.72c-11.702857 0-20.48-8.777143-23.405714-20.48-2.925714-11.702857 8.777143-23.405714 20.48-26.331429 8.777143-2.925714 14.628571-5.851429 20.48-11.702857 14.628571-14.628571 11.702857-38.034286-2.925714-49.737143-5.851429-5.851429-14.628571-8.777143-23.405715-8.777142-8.777143 0-17.554286 5.851429-23.405714 11.702857-5.851429 5.851429-8.777143 14.628571-8.777143 20.48 0 11.702857-11.702857 23.405714-23.405714 20.48-11.702857 0-23.405714-11.702857-20.48-23.405715 2.925714-17.554286 8.777143-38.034286 20.48-49.737142 29.257143-32.182857 81.92-35.108571 114.102857-5.851429s35.108571 81.92 5.851429 114.102857c-11.702857 14.628571-29.257143 23.405714-49.737143 23.405714-2.925714 5.851429-2.925714 5.851429-5.851429 5.851429z" fill="#3578B5" p-id="2407"></path><path d="M421.302857 939.154286c-26.331429 0-49.737143-8.777143-67.291428-26.331429l-201.874286-187.245714c-20.48-17.554286-29.257143-43.885714-32.182857-70.217143-2.925714-26.331429 8.777143-52.662857 26.331428-73.142857l216.502857-231.131429c17.554286-20.48 46.811429-32.182857 73.142858-32.182857 26.331429 0 49.737143 8.777143 67.291428 26.331429l201.874286 187.245714c40.96 38.034286 43.885714 102.4 5.851428 140.434286l-216.502857 234.057143c-17.554286 20.48-46.811429 32.182857-73.142857 32.182857z m14.628572-573.44c-14.628571 0-29.257143 5.851429-40.96 17.554285L181.394286 614.4c-8.777143 11.702857-14.628571 23.405714-14.628572 38.034286s5.851429 26.331429 17.554286 38.034285l201.874286 187.245715c20.48 20.48 55.588571 17.554286 76.068571-2.925715l216.502857-231.131428c20.48-20.48 17.554286-55.588571-2.925714-76.068572l-204.8-187.245714c-8.777143-8.777143-20.48-14.628571-35.108571-14.628571z" fill="#3878B5" p-id="2408"></path><path d="M743.131429 608.548571c-17.554286 0-35.108571-5.851429-46.811429-17.554285l-245.76-231.131429c-26.331429-26.331429-29.257143-70.217143-2.925714-99.474286l17.554285-17.554285c11.702857-14.628571 29.257143-20.48 49.737143-20.48 17.554286 0 35.108571 5.851429 46.811429 17.554285l245.76 231.131429c26.331429 26.331429 29.257143 70.217143 2.925714 99.474286l-17.554286 14.628571c-11.702857 14.628571-29.257143 23.405714-49.737142 23.405714zM514.925714 266.24c-5.851429 0-11.702857 2.925714-17.554285 8.777143l-17.554286 17.554286c-8.777143 8.777143-8.777143 23.405714 2.925714 32.182857l245.76 231.131428c8.777143 8.777143 23.405714 8.777143 32.182857-2.925714l17.554286-17.554286c8.777143-8.777143 8.777143-23.405714-2.925714-32.182857l-245.76-231.131428c-2.925714-2.925714-8.777143-5.851429-14.628572-5.851429z" fill="#3878B5" p-id="2409"></path><path d="M386.194286 503.222857c-5.851429 0-11.702857-2.925714-14.628572-5.851428l-58.514285-55.588572c-8.777143-8.777143-8.777143-23.405714-2.925715-32.182857 8.777143-8.777143 23.405714-8.777143 32.182857-2.925714l58.514286 55.588571c8.777143 8.777143 8.777143 23.405714 2.925714 32.182857-2.925714 5.851429-11.702857 8.777143-17.554285 8.777143zM283.794286 614.4c-5.851429 0-11.702857-2.925714-14.628572-5.851429l-58.514285-55.588571c-8.777143-8.777143-8.777143-23.405714-2.925715-32.182857 8.777143-8.777143 23.405714-8.777143 32.182857-2.925714l58.514286 55.588571c8.777143 8.777143 8.777143 23.405714 2.925714 32.182857-5.851429 5.851429-11.702857 8.777143-17.554285 8.777143z" fill="#D71D1F" p-id="2410"></path></svg>