<?xml version="1.0" standalone="no"?><!DOCTYPE svg PUBLIC "-//W3C//DTD SVG 1.1//EN" "http://www.w3.org/Graphics/SVG/1.1/DTD/svg11.dtd"><svg t="1677815411521" class="icon" viewBox="0 0 1024 1024" version="1.1" xmlns="http://www.w3.org/2000/svg" p-id="1934" xmlns:xlink="http://www.w3.org/1999/xlink" width="200" height="200"><path d="M611.474286 690.468571c-29.257143 0-58.514286-5.851429-87.771429-14.628571-11.702857-5.851429-17.554286-17.554286-14.628571-29.257143 5.851429-11.702857 17.554286-17.554286 29.257143-14.628571 23.405714 8.777143 49.737143 11.702857 76.068571 11.702857 81.92 0 157.988571-40.96 201.874286-111.177143 23.405714-38.034286 38.034286-81.92 38.034285-128.731429 0-131.657143-108.251429-239.908571-239.908571-239.908571-49.737143 0-99.474286 14.628571-140.434286 43.885714-61.44 43.885714-99.474286 117.028571-99.474285 196.022857 0 35.108571 5.851429 67.291429 20.48 93.622858 5.851429 11.702857 0 23.405714-11.702858 29.257142-11.702857 5.851429-23.405714 0-29.257142-11.702857-14.628571-38.034286-23.405714-76.068571-23.405715-114.102857 0-90.697143 43.885714-178.468571 119.954286-231.131428C500.297143 134.582857 555.885714 117.028571 617.325714 117.028571c157.988571 0 286.72 128.731429 286.72 286.72 0 52.662857-14.628571 108.251429-43.885714 152.137143-58.514286 84.845714-149.211429 134.582857-248.685714 134.582857z" fill="#3271B0" p-id="1935"></path><path d="M263.314286 866.011429c-20.48 0-40.96-8.777143-52.662857-20.48l-29.257143-29.257143c-26.331429-26.331429-29.257143-70.217143-5.851429-99.474286l149.211429-184.32c29.257143-38.034286 43.885714-38.034286 49.737143-38.034286 11.702857 0 17.554286 5.851429 23.405714 14.628572l2.925714 2.925714c26.331429 52.662857 70.217143 90.697143 125.805714 114.102857l5.851429 2.925714c8.777143 2.925714 14.628571 11.702857 14.628571 20.48 2.925714 8.777143 2.925714 20.48-38.034285 52.662858l-198.948572 146.285714c-14.628571 11.702857-29.257143 17.554286-46.811428 17.554286z m102.4-315.977143l-8.777143 8.777143-149.211429 184.32c-8.777143 11.702857-8.777143 26.331429 2.925715 38.034285l29.257142 29.257143c8.777143 8.777143 29.257143 11.702857 40.96 2.925714l198.948572-149.211428c2.925714-2.925714 2.925714-2.925714 5.851428-2.925714-49.737143-26.331429-90.697143-61.44-119.954285-111.177143zM705.097143 599.771429C544.182857 599.771429 409.6 468.114286 409.6 304.274286c0-43.885714 8.777143-81.92 26.331429-122.88 2.925714-2.925714 5.851429-5.851429 8.777142-11.702857C491.52 134.582857 550.034286 117.028571 611.474286 117.028571c157.988571 0 286.72 128.731429 286.72 286.72 0 52.662857-14.628571 108.251429-43.885715 152.137143l-8.777142 8.777143c-43.885714 23.405714-90.697143 35.108571-140.434286 35.108572zM476.891429 207.725714c-14.628571 29.257143-20.48 61.44-20.48 99.474286a248.480914 248.480914 0 0 0 359.862857 222.354286c20.48-38.034286 35.108571-78.994286 35.108571-122.88 0-131.657143-108.251429-239.908571-239.908571-239.908572-46.811429-2.925714-93.622857 14.628571-134.582857 40.96z" fill="#3271B0" p-id="1936"></path><path d="M409.6 658.285714c0 20.48-17.554286 40.96-40.96 40.96-20.48 0-40.96-17.554286-40.96-40.96 0-20.48 17.554286-40.96 40.96-40.96 23.405714 0 40.96 17.554286 40.96 40.96zM163.84 883.565714c-5.851429 0-11.702857-2.925714-17.554286-5.851428-8.777143-8.777143-8.777143-23.405714 0-32.182857l61.44-61.44c8.777143-8.777143 23.405714-8.777143 32.182857 0 8.777143 8.777143 8.777143 23.405714 0 32.182857L178.468571 877.714286c-2.925714 2.925714-8.777143 5.851429-14.628571 5.851428z" fill="#CE1C1B" p-id="1937"></path></svg>