<?xml version="1.0" standalone="no"?><!DOCTYPE svg PUBLIC "-//W3C//DTD SVG 1.1//EN" "http://www.w3.org/Graphics/SVG/1.1/DTD/svg11.dtd"><svg t="1677551782858" class="icon" viewBox="0 0 1024 1024" version="1.1" xmlns="http://www.w3.org/2000/svg" p-id="2734" xmlns:xlink="http://www.w3.org/1999/xlink" width="200" height="200"><path d="M697.4 342.9s63.8 45.7 63.8 79.7V885c0 26.4-21.4 47.8-47.8 47.8H314.7c-26.4 0-47.8-21.4-47.8-47.8V422.6c0-34 63.8-79.7 63.8-79.7v-83.7c0-6.6 5.4-12 12-12h342.8c6.6 0 12 5.4 12 12v83.7z" fill="#FFFFFF" p-id="2735"></path><path d="M514 207.4m-119.6 0a119.6 119.6 0 1 0 239.2 0 119.6 119.6 0 1 0-239.2 0Z" fill="#FFEE91" p-id="2736"></path><path d="M576.2 105.4c11.4 18.7 17.5 40.2 17.5 62.1 0 66-53.5 119.6-119.6 119.6-22 0-43.5-6.1-62.2-17.6 21.7 35.7 60.4 57.4 102.1 57.5 66 0 119.6-53.5 119.6-119.6-0.1-41.7-21.8-80.3-57.4-102z" fill="#F9D151" p-id="2737"></path><path d="M266.9 462.5h494.3v350.8H266.9z" fill="#B0FA90" p-id="2738"></path><path d="M625.6 247.2v119c0 8.1 4 15.6 10.8 20 18.2 11.7 52.9 36.3 52.9 52.3v398.6c0 13.2-10.7 23.9-23.9 23.9H266.9v24c0 26.4 21.4 47.8 47.8 47.8h398.6c26.4 0 47.8-21.4 47.8-47.8V422.6c0-34-63.8-79.7-63.8-79.7v-83.7c0-6.6-5.4-12-12-12h-59.7z" fill="#E5F0F1" p-id="2739"></path><path d="M689.4 462.5v350.8h71.7V462.5h-71.7z" fill="#95E55F" p-id="2740"></path><path d="M513.6 510.3c-11.8 0.2-21.7 9-23.3 20.7-23.4 9.5-40.1 32.5-40.1 59 0 18.6 9 34.8 19.5 45.3s22 17.1 32 23 18.3 11.4 22.8 15.8c4.5 4.5 5.4 6.2 5.4 11.5 0 9.1-6.9 15.9-15.9 15.9-9.1 0-15.9-6.9-15.9-15.9 0.2-13.2-10.4-24.1-23.6-24.3-13.2-0.2-24.1 10.4-24.3 23.6v0.7c0 26.6 16.7 49.5 40.1 59 1.9 13.1 14 22.2 27 20.3 10.5-1.5 18.8-9.8 20.3-20.3 23.4-9.5 40.1-32.5 40.1-59 0-18.6-9-34.8-19.5-45.3s-22-17.1-32-23-18.2-11.3-22.7-15.8-5.4-6.2-5.4-11.5c0-9.1 6.9-15.9 15.9-15.9 9.1 0 15.9 6.9 15.9 15.9-0.2 13.2 10.4 24.1 23.6 24.3 13.2 0.2 24.1-10.4 24.3-23.6v-0.7c0-26.6-16.7-49.5-40.1-59-1.7-12-12-20.9-24.1-20.7z" fill="#FFFFFF" p-id="2741"></path><path d="M713.3 956.7H314.7c-39.6 0-71.7-32.2-71.7-71.7V422.6c0-36.5 40.9-73.7 63.8-91.7v-59.8c0-26.4 21.5-47.8 47.8-47.8H506c13.2 0 23.9 10.7 23.9 23.9s-10.7 23.9-23.9 23.9H354.6v71.7c0 7.7-3.7 14.9-10 19.4-25.4 18.3-53.8 48-53.8 60.3V885c0 13.2 10.7 23.9 23.9 23.9h398.6c13.2 0 23.9-10.7 23.9-23.9V422.6c0-12.4-28.4-42.1-53.8-60.3-6.3-4.5-10-11.7-10-19.4v-79.7c0-13.2 10.7-23.9 23.9-23.9s23.9 10.7 23.9 23.9V331c22.8 17.9 63.8 55.1 63.8 91.7V885c0.1 39.5-32.1 71.7-71.7 71.7z" fill="#444852" p-id="2742"></path><path d="M514 63.9c-60.7 0-115 38.4-135.3 95.6-4.4 12.5 2.1 26.1 14.6 30.5s26.1-2.1 30.5-14.6c13.6-38.3 49.6-63.7 90.2-63.7 53.1 0 95.7 42.5 95.7 95.7S567.1 303 514 303c-13.2-0.2-24.1 10.4-24.3 23.6-0.2 13.2 10.4 24.1 23.6 24.3h0.7c79 0 143.5-64.5 143.5-143.5S593 63.9 514 63.9z" fill="#444852" p-id="2743"></path></svg>