<?xml version="1.0" standalone="no"?><!DOCTYPE svg PUBLIC "-//W3C//DTD SVG 1.1//EN" "http://www.w3.org/Graphics/SVG/1.1/DTD/svg11.dtd"><svg t="1677756526639" class="icon" viewBox="0 0 1024 1024" version="1.1" xmlns="http://www.w3.org/2000/svg" p-id="12882" id="mx_n_1677756526640" xmlns:xlink="http://www.w3.org/1999/xlink" width="200" height="200"><path d="M512 68.266667c171.178667 0 304.298667 141.1072 324.061867 322.8672l3.6864 34.679466c1.262933 11.9808 2.525867 24.354133 3.805866 37.12l2.56 25.992534c5.051733 51.438933 10.103467 106.052267 14.9504 161.0752l9.216 107.554133a34.133333 34.133333 0 0 1-67.7376 8.0896l-0.785066-8.516267-5.6832-66.7648-0.938667-10.837333c-4.096-47.035733-8.362667-94.071467-12.6464-139.332267l-4.3008-44.5952a9337.890133 9337.890133 0 0 0-9.984-97.092266C751.957333 249.224533 645.666133 136.533333 512 136.533333c-138.171733 0-240.4352 105.130667-256.170667 261.700267l-5.922133 59.938133-4.898133 50.858667c-2.474667 25.821867-4.949333 52.138667-7.406934 78.711467l-11.912533 130.901333-3.959467 44.663467A34.133333 34.133333 0 0 1 153.6 759.9104l0.733867-9.4208 7.918933-88.695467 4.9152-53.674666c4.9152-53.521067 9.898667-106.3936 14.7968-156.5696l4.488533-45.568 1.450667-14.574934C206.967467 201.693867 336.725333 68.266667 512 68.266667z" fill="#444444" p-id="12883"></path><path d="M921.6 753.083733a34.133333 34.133333 0 0 1 2.56 68.181334l-2.56 0.085333H102.4a34.133333 34.133333 0 0 1-2.56-68.181333l2.56-0.085334h819.2z" fill="#444444" p-id="12884"></path><path d="M640 767.061333a34.133333 34.133333 0 0 1 34.133333 34.133334c0 85.282133-68.7104 154.538667-153.6 154.538666s-153.6-69.256533-153.6-154.538666a34.133333 34.133333 0 1 1 68.266667 0c0 47.701333 38.263467 86.272 85.333333 86.272 45.824 0 83.319467-36.5568 85.248-82.517334l0.085334-3.754666a34.133333 34.133333 0 0 1 34.133333-34.133334z" fill="#444444" p-id="12885"></path><path d="M349.866667 435.2a34.133333 34.133333 0 0 1 32.375466 35.805867L371.524267 682.666667h-68.334934l10.871467-215.074134A34.133333 34.133333 0 0 1 349.866667 435.2z" fill="#00B386" p-id="12886"></path></svg>