<?xml version="1.0" standalone="no"?><!DOCTYPE svg PUBLIC "-//W3C//DTD SVG 1.1//EN" "http://www.w3.org/Graphics/SVG/1.1/DTD/svg11.dtd"><svg t="1677831087290" class="icon" viewBox="0 0 1024 1024" version="1.1" xmlns="http://www.w3.org/2000/svg" p-id="3350" xmlns:xlink="http://www.w3.org/1999/xlink" width="200" height="200"><path d="M523.702857 614.4c-11.702857 0-20.48-5.851429-26.331428-11.702857l-73.142858-73.142857c-5.851429-5.851429-14.628571-17.554286-20.48-23.405715-2.925714-5.851429-35.108571-40.96-35.108571-78.994285 0-58.514286 46.811429-105.325714 105.325714-105.325715 26.331429 0 49.737143 14.628571 52.662857 14.628572h5.851429c2.925714-2.925714 26.331429-14.628571 52.662857-14.628572 58.514286 0 105.325714 46.811429 105.325714 105.325715 0 43.885714-40.96 78.994286-43.885714 81.92l-20.48 20.48-70.217143 70.217143c-11.702857 11.702857-23.405714 14.628571-32.182857 14.628571z m-49.737143-242.834286c-35.108571 0-58.514286 26.331429-58.514285 58.514286 0 17.554286 14.628571 38.034286 23.405714 46.811429l20.48 20.48 67.291428 67.291428 64.365715-64.365714c5.851429-5.851429 17.554286-17.554286 23.405714-20.48 8.777143-5.851429 29.257143-29.257143 29.257143-46.811429 0-35.108571-26.331429-58.514286-58.514286-58.514285-11.702857 0-23.405714 5.851429-29.257143 8.777142-8.777143 5.851429-17.554286 5.851429-23.405714 5.851429-5.851429 0-14.628571-2.925714-23.405714-5.851429-11.702857-5.851429-23.405714-11.702857-35.108572-11.702857z" fill="#CD1B1C" p-id="3351"></path><path d="M766.537143 848.457143c-14.628571 0-29.257143-5.851429-43.885714-14.628572l-204.8-134.582857-187.245715 131.657143c-32.182857 23.405714-67.291429 20.48-84.845714-5.851428-8.777143-11.702857-14.628571-26.331429-14.628571-46.811429V263.314286c0-55.588571 43.885714-99.474286 99.474285-99.474286h392.045715c55.588571 0 99.474286 43.885714 99.474285 99.474286v517.851428c0 46.811429-26.331429 67.291429-55.588571 67.291429z m-248.685714-196.022857c8.777143 0 14.628571 2.925714 20.48 5.851428l207.725714 137.508572c8.777143 5.851429 14.628571 8.777143 17.554286 8.777143 8.777143 0 11.702857-17.554286 11.702857-23.405715V260.388571c0-29.257143-23.405714-52.662857-52.662857-52.662857H333.531429c-29.257143 0-52.662857 23.405714-52.662858 52.662857v517.851429c0 11.702857 2.925714 17.554286 5.851429 20.48 2.925714 2.925714 2.925714 2.925714 5.851429 2.925714s8.777143 0 17.554285-8.777143l193.097143-134.582857c0-5.851429 8.777143-5.851429 14.628572-5.851428z" fill="#3570AF" p-id="3352"></path></svg>