<?xml version="1.0" standalone="no"?><!DOCTYPE svg PUBLIC "-//W3C//DTD SVG 1.1//EN" "http://www.w3.org/Graphics/SVG/1.1/DTD/svg11.dtd"><svg t="1677831054319" class="icon" viewBox="0 0 1024 1024" version="1.1" xmlns="http://www.w3.org/2000/svg" p-id="2880" xmlns:xlink="http://www.w3.org/1999/xlink" width="200" height="200"><path d="M318.902857 708.022857c-14.628571 0-26.331429-5.851429-35.108571-17.554286-8.777143-8.777143-14.628571-26.331429-5.851429-58.514285 14.628571-58.514286 26.331429-134.582857 20.48-152.137143-5.851429-17.554286-58.514286-70.217143-108.251428-108.251429-29.257143-26.331429-29.257143-49.737143-26.331429-61.44 2.925714-11.702857 14.628571-32.182857 55.588571-38.034285 61.44-8.777143 134.582857-17.554286 152.137143-23.405715 11.702857-14.628571 43.885714-81.92 67.291429-137.508571 17.554286-38.034286 40.96-43.885714 52.662857-43.885714 11.702857 0 35.108571 5.851429 52.662857 43.885714 26.331429 58.514286 58.514286 125.805714 70.217143 140.434286 14.628571 8.777143 87.771429 17.554286 149.211429 23.405714 40.96 2.925714 52.662857 23.405714 55.588571 35.108571 2.925714 11.702857 5.851429 35.108571-26.331429 61.44-46.811429 40.96-102.4 93.622857-108.251428 108.251429-2.925714 14.628571 8.777143 90.697143 23.405714 152.137143 8.777143 29.257143 0 46.811429-8.777143 55.588571-14.628571 20.48-43.885714 20.48-76.068571 2.925714-52.662857-32.182857-119.954286-67.291429-137.508572-70.217142-17.554286 2.925714-81.92 38.034286-137.508571 70.217142-2.925714 14.628571-17.554286 17.554286-29.257143 17.554286z m-108.251428-380.342857l11.702857 11.702857c23.405714 20.48 108.251429 90.697143 119.954285 131.657143 11.702857 38.034286-14.628571 146.285714-20.48 178.468571-2.925714 8.777143-2.925714 14.628571-2.925714 14.628572 2.925714 0 8.777143-2.925714 14.628572-5.851429 49.737143-29.257143 134.582857-76.068571 160.914285-76.068571 26.331429 0 111.177143 46.811429 160.914286 76.068571 8.777143 5.851429 14.628571 5.851429 14.628571 5.851429 0-2.925714 2.925714-8.777143-2.925714-17.554286-11.702857-43.885714-32.182857-143.36-23.405714-175.542857 8.777143-32.182857 87.771429-102.4 122.88-131.657143l11.702857-11.702857c-2.925714-2.925714-8.777143-2.925714-14.628571-2.925714-102.4-8.777143-160.914286-20.48-175.542858-35.108572-17.554286-17.554286-61.44-114.102857-81.92-155.062857-5.851429-11.702857-8.777143-14.628571-11.702857-14.628571 0 0-5.851429 5.851429-8.777143 14.628571-64.365714 146.285714-78.994286 152.137143-84.845714 157.988572-11.702857 8.777143-70.217143 17.554286-172.617143 29.257142-8.777143 0-17.554286 2.925714-17.554285 5.851429z" fill="#3271B0" p-id="2881"></path><path d="M491.52 880.64c-17.554286 0-29.257143-14.628571-29.257143-29.257143v-143.36c0-17.554286 14.628571-29.257143 29.257143-29.257143 17.554286 0 29.257143 14.628571 29.257143 29.257143V848.457143c0 17.554286-11.702857 32.182857-29.257143 32.182857zM371.565714 857.234286c-17.554286 0-29.257143-14.628571-29.257143-29.257143v-73.142857c0-17.554286 14.628571-29.257143 29.257143-29.257143 17.554286 0 29.257143 14.628571 29.257143 29.257143v73.142857c0 14.628571-11.702857 29.257143-29.257143 29.257143zM617.325714 857.234286c-17.554286 0-29.257143-14.628571-29.257143-29.257143v-73.142857c0-17.554286 14.628571-29.257143 29.257143-29.257143 17.554286 0 29.257143 14.628571 29.257143 29.257143v73.142857c0 14.628571-11.702857 29.257143-29.257143 29.257143z" fill="#E8A225" p-id="2882"></path></svg>