<?xml version="1.0" standalone="no"?><!DOCTYPE svg PUBLIC "-//W3C//DTD SVG 1.1//EN" "http://www.w3.org/Graphics/SVG/1.1/DTD/svg11.dtd"><svg t="1677756310170" class="icon" viewBox="0 0 1024 1024" version="1.1" xmlns="http://www.w3.org/2000/svg" p-id="9139" xmlns:xlink="http://www.w3.org/1999/xlink" width="200" height="200"><path d="M287.744 356.864h421.376c27.136 0 49.664 22.016 49.664 49.664v148.992c0 27.136-22.016 49.664-49.664 49.664H287.744c-27.136 0-49.664-22.016-49.664-49.664V406.016c0-27.136 22.016-49.152 49.664-49.152z" fill="#CAE4FF" p-id="9140"></path><path d="M858.112 200.704c-1.024 0-2.048-1.024-2.048-1.024v54.784c0-0.512 0.512-1.024 2.048-1.024H143.872c1.024 0 2.048 1.024 2.048 1.024V199.68c0 0.512-0.512 1.024-2.048 1.024h714.24zM89.088 199.68v54.784c-0.512 30.208 24.064 55.296 54.784 55.808h714.24c30.72 0 54.784-25.088 54.784-55.296V199.68c0.512-30.208-24.064-55.296-54.784-55.808H143.872c-30.208 0-54.784 25.088-54.784 55.808z m702.976 110.08c-1.536 0-2.048-0.512-2.048-1.024v327.168c0-0.512 0.512-1.024 2.048-1.024H209.92c1.536 0 2.048 0.512 2.048 1.024v-327.68c0 0.512-0.512 1.024-2.048 1.024h582.144z m-636.928-1.536v327.168c0 30.72 24.576 55.296 54.784 55.296h581.632c30.72 0 55.296-25.088 54.784-55.296V308.224c0-30.72-24.576-55.296-54.784-55.296H209.92c-30.208 0-54.784 25.088-54.784 55.296zM384 691.2h277.504c5.632 1.024 10.752 4.096 14.336 8.704l106.496 198.144c7.68 13.824 24.576 18.944 38.4 11.776 13.824-7.68 18.944-24.576 11.776-38.4l-106.496-187.904-407.04-14.336s37.376 45.568 46.592 32.768c4.608-6.144 11.264-9.728 18.432-10.752z m-18.944 10.24c9.216-12.8-46.592-18.432-46.592-18.432l-140.8 186.88c-9.216 12.8-5.632 30.72 7.168 39.424 12.8 9.216 30.72 5.632 39.424-7.168L365.056 701.44z m216.064-169.472l114.176-105.472c11.776-10.752 12.288-28.672 1.536-39.936s-28.672-12.288-39.936-1.536L542.72 490.496c-3.072 2.048-7.168 2.56-10.752 1.536-13.824-7.168-31.232-2.048-38.4 11.776-7.168 13.824-2.048 31.232 11.776 38.4 25.088 12.288 54.784 8.192 75.776-10.24z m-163.328-28.16c3.584-2.048 7.68-2.56 11.264-1.536l76.288 39.936c13.824 7.168 31.232 2.048 38.4-11.776 7.168-13.824 2.048-31.232-11.776-38.4L455.68 452.096c-25.088-12.288-54.784-8.192-75.776 9.728l-99.328 89.088c-11.776 10.24-12.8 28.16-2.048 39.936s28.16 12.8 39.936 2.048l99.328-89.088z" fill="#0972E7" p-id="9141"></path></svg>